<?xml version="1.0" encoding="UTF-8"?><svg id="Layer_1" xmlns="http://www.w3.org/2000/svg" viewBox="0 0 900 900"><path d="M505.65,82.89c-7.69-15.82-23.94-25.89-41.78-25.89s-33.95,10.07-41.78,25.89l-93.28,190.3-208.32,30.49c-17.41,2.59-31.92,14.67-37.28,31.21-5.37,16.54-1.02,34.81,11.46,47.04l151.16,148.3-35.69,209.58c-2.9,17.26,4.35,34.81,18.71,45.02,14.36,10.21,33.37,11.51,49.03,3.31l186.13-98.53,186.13,98.53c15.67,8.2,34.67,7.05,49.03-3.31s21.62-27.76,18.71-45.02l-35.83-209.58,151.16-148.3c12.48-12.23,16.97-30.49,11.46-47.04-5.51-16.54-19.87-28.62-37.28-31.21l-208.47-30.49-93.28-190.3Z"/></svg>